<svg version="1.1" id="Layer_1" xmlns="http://www.w3.org/2000/svg" xmlns:xlink="http://www.w3.org/1999/xlink" x="0px" y="0px"
	 width="100%" viewBox="0 0 127 127" enable-background="new 0 0 127 127" xml:space="preserve">
<path fill="#ffffff" opacity="1.000000" stroke="none"
	d="
M128.000000,54.000000
	C128.000000,60.687645 128.000000,67.375290 127.754028,74.862999
	C123.115883,68.667702 116.600853,66.604462 108.662659,66.921677
	C100.032715,67.266541 91.362038,66.692322 82.742477,67.148766
	C79.198547,67.336426 75.313354,68.499352 72.338295,70.400185
	C66.858368,73.901436 66.736855,80.336807 68.283340,86.611168
	C69.444458,91.322006 75.953865,94.932693 82.562454,94.980713
	C92.535454,95.053192 102.511459,95.122116 112.482086,94.952164
	C118.082832,94.856697 123.068466,93.166962 126.109100,87.861252
	C126.388779,87.373230 127.353416,87.277748 128.000000,87.000000
	C128.000000,100.593330 128.000000,114.186668 128.000000,128.000000
	C114.646576,128.000000 101.291946,128.000000 87.137413,127.754654
	C88.167267,125.894325 90.195686,124.453484 91.791237,122.633217
	C97.654228,115.944489 94.534676,103.131355 86.208855,101.283607
	C80.098389,99.927513 73.647942,100.103325 67.000534,99.568367
	C67.000534,103.908447 66.925598,107.209724 67.016373,110.506447
	C67.197052,117.068352 68.209953,123.251747 74.965843,126.610497
	C75.159607,126.706833 74.996635,127.520699 75.000000,128.000000
	C68.312355,128.000000 61.624710,128.000000 54.150276,127.739685
	C60.448906,123.081680 62.379681,116.467247 62.073952,108.530624
	C61.747890,100.066109 62.294548,91.564217 61.861145,83.109352
	C61.677441,79.525681 60.596226,75.653839 58.800083,72.566147
	C56.174778,68.053055 49.697792,65.846428 42.605419,68.188240
	C37.891907,69.744576 34.138493,75.484283 34.042454,81.940224
	C33.889179,92.243408 33.893463,102.552124 34.044552,112.855370
	C34.125313,118.362411 36.016628,123.104599 41.101254,126.088928
	C41.602165,126.382935 41.709812,127.346962 42.000000,128.000000
	C28.406666,128.000000 14.813334,128.000000 1.000000,128.000000
	C1.000000,114.646576 1.000000,101.291946 1.256453,87.145981
	C2.031015,86.962311 2.622208,87.522209 3.055552,88.185265
	C6.224206,93.033607 10.938227,95.448517 16.429525,94.665230
	C22.579868,93.787933 27.595264,90.746407 28.137709,83.516670
	C28.538574,78.173897 28.925714,72.830101 29.354834,66.999474
	C25.212193,66.999474 21.926258,67.025902 18.640894,66.993942
	C11.903900,66.928429 5.923245,68.356377 2.405501,74.918442
	C2.289599,75.134644 1.484067,74.981163 1.000000,75.000000
	C1.000000,68.312355 1.000000,61.624710 1.245521,54.136059
	C5.822596,60.468407 12.578186,62.190361 20.340685,62.035664
	C28.487064,61.873322 36.655628,62.304630 44.781689,61.867126
	C48.690937,61.656651 52.965176,60.807877 56.289776,58.889114
	C61.314056,55.989395 63.100826,49.438030 60.743767,42.382954
	C59.283371,38.011749 53.357262,34.076344 47.935223,34.028851
	C36.959034,33.932701 25.980160,33.902809 15.004933,34.043579
	C9.956658,34.108334 6.017288,36.564251 3.064580,40.674427
	C2.620943,41.291969 1.700096,41.566692 1.000000,42.000000
	C1.000000,28.406666 1.000000,14.813334 1.000000,1.000000
	C14.353423,1.000000 27.708054,1.000000 41.863781,1.245189
	C41.068478,2.868730 39.380047,4.155098 37.893070,5.642820
	C33.572495,9.965563 32.820339,15.498499 35.467281,20.415003
	C37.189583,23.614059 41.035492,26.910460 44.475666,27.660477
	C49.979202,28.860344 55.935894,27.981703 61.999554,27.981703
	C61.999554,24.630323 61.969082,21.825979 62.005592,19.022505
	C62.094936,12.162062 60.846203,5.968593 54.039898,2.395489
	C53.838036,2.289515 54.005001,1.480973 54.000000,1.000000
	C60.687645,1.000000 67.375290,1.000000 74.827423,1.284138
	C68.671219,5.844444 66.658165,12.282436 66.930435,20.056370
	C67.221260,28.359812 66.811905,36.687496 67.090073,44.991806
	C67.196594,48.171825 67.765465,51.612392 69.162300,54.416908
	C72.274536,60.665543 78.197464,62.719486 85.764359,60.942558
	C90.578712,59.812000 94.920944,53.726151 94.974602,47.665249
	C95.064400,37.523422 94.944206,27.379807 95.021019,17.237764
	C95.067924,11.044040 93.234100,5.956017 87.510002,2.780505
	C87.128242,2.568717 87.160370,1.610854 87.000000,1.000000
	C100.593330,1.000000 114.186668,1.000000 128.000000,1.000000
	C128.000000,14.353423 128.000000,27.708054 127.716248,41.827324
	C126.280350,41.220837 125.203850,39.776760 123.963478,38.490738
	C117.252129,31.532419 104.657509,33.103783 101.898796,41.876141
	C99.948402,48.078136 100.164200,54.961353 99.441910,61.287010
	C101.066109,61.755188 101.375069,61.907040 101.691162,61.923721
	C102.687645,61.976315 103.686729,61.983994 104.684952,61.998798
	C113.330322,62.127041 122.063972,62.487984 127.288750,53.508686
	C127.525833,53.672459 127.762917,53.836231 128.000000,54.000000
z"/>
<path fill="#36C5F0" opacity="1.000000" stroke="none"
	d="
M1.000000,42.460636
	C1.700096,41.566692 2.620943,41.291969 3.064580,40.674427
	C6.017288,36.564251 9.956658,34.108334 15.004933,34.043579
	C25.980160,33.902809 36.959034,33.932701 47.935223,34.028851
	C53.357262,34.076344 59.283371,38.011749 60.743767,42.382954
	C63.100826,49.438030 61.314056,55.989395 56.289776,58.889114
	C52.965176,60.807877 48.690937,61.656651 44.781689,61.867126
	C36.655628,62.304630 28.487064,61.873322 20.340685,62.035664
	C12.578186,62.190361 5.822596,60.468407 1.245521,53.667526
	C1.000000,50.307091 1.000000,46.614182 1.000000,42.460636
z"/>
<path fill="#E01E5A" opacity="1.000000" stroke="none"
	d="
M42.460636,128.000000
	C41.709812,127.346962 41.602165,126.382935 41.101254,126.088928
	C36.016628,123.104599 34.125313,118.362411 34.044552,112.855370
	C33.893463,102.552124 33.889179,92.243408 34.042454,81.940224
	C34.138493,75.484283 37.891907,69.744576 42.605419,68.188240
	C49.697792,65.846428 56.174778,68.053055 58.800083,72.566147
	C60.596226,75.653839 61.677441,79.525681 61.861145,83.109352
	C62.294548,91.564217 61.747890,100.066109 62.073952,108.530624
	C62.379681,116.467247 60.448906,123.081680 53.681747,127.739685
	C50.307091,128.000000 46.614182,128.000000 42.460636,128.000000
z"/>
<path fill="#ECB22E" opacity="1.000000" stroke="none"
	d="
M128.000000,86.539360
	C127.353416,87.277748 126.388779,87.373230 126.109100,87.861252
	C123.068466,93.166962 118.082832,94.856697 112.482086,94.952164
	C102.511459,95.122116 92.535454,95.053192 82.562454,94.980713
	C75.953865,94.932693 69.444458,91.322006 68.283340,86.611168
	C66.736855,80.336807 66.858368,73.901436 72.338295,70.400185
	C75.313354,68.499352 79.198547,67.336426 82.742477,67.148766
	C91.362038,66.692322 100.032715,67.266541 108.662659,66.921677
	C116.600853,66.604462 123.115883,68.667702 127.754028,75.331528
	C128.000000,78.692909 128.000000,82.385818 128.000000,86.539360
z"/>
<path fill="#2EB67D" opacity="1.000000" stroke="none"
	d="
M86.539368,1.000000
	C87.160370,1.610854 87.128242,2.568717 87.510002,2.780505
	C93.234100,5.956017 95.067924,11.044040 95.021019,17.237764
	C94.944206,27.379807 95.064400,37.523422 94.974602,47.665249
	C94.920944,53.726151 90.578712,59.812000 85.764359,60.942558
	C78.197464,62.719486 72.274536,60.665543 69.162300,54.416908
	C67.765465,51.612392 67.196594,48.171825 67.090073,44.991806
	C66.811905,36.687496 67.221260,28.359812 66.930435,20.056370
	C66.658165,12.282436 68.671219,5.844444 75.295959,1.284138
	C78.692909,1.000000 82.385818,1.000000 86.539368,1.000000
z"/>
<path fill="#ECB22E" opacity="1.000000" stroke="none"
	d="
M75.460632,128.000000
	C74.996635,127.520699 75.159607,126.706833 74.965843,126.610497
	C68.209953,123.251747 67.197052,117.068352 67.016373,110.506447
	C66.925598,107.209724 67.000534,103.908447 67.000534,99.568367
	C73.647942,100.103325 80.098389,99.927513 86.208855,101.283607
	C94.534676,103.131355 97.654228,115.944489 91.791237,122.633217
	C90.195686,124.453484 88.167267,125.894325 86.668755,127.754654
	C83.307091,128.000000 79.614182,128.000000 75.460632,128.000000
z"/>
<path fill="#2EB67D" opacity="1.000000" stroke="none"
	d="
M128.000000,53.539364
	C127.762917,53.836231 127.525833,53.672459 127.288750,53.508686
	C122.063972,62.487984 113.330322,62.127041 104.684952,61.998798
	C103.686729,61.983994 102.687645,61.976315 101.691162,61.923721
	C101.375069,61.907040 101.066109,61.755188 99.441910,61.287010
	C100.164200,54.961353 99.948402,48.078136 101.898796,41.876141
	C104.657509,33.103783 117.252129,31.532419 123.963478,38.490738
	C125.203850,39.776760 126.280350,41.220837 127.716248,42.295982
	C128.000000,45.692909 128.000000,49.385818 128.000000,53.539364
z"/>
<path fill="#E01E5A" opacity="1.000000" stroke="none"
	d="
M1.000000,75.460632
	C1.484067,74.981163 2.289599,75.134644 2.405501,74.918442
	C5.923245,68.356377 11.903900,66.928429 18.640894,66.993942
	C21.926258,67.025902 25.212193,66.999474 29.354834,66.999474
	C28.925714,72.830101 28.538574,78.173897 28.137709,83.516670
	C27.595264,90.746407 22.579868,93.787933 16.429525,94.665230
	C10.938227,95.448517 6.224206,93.033607 3.055552,88.185265
	C2.622208,87.522209 2.031015,86.962311 1.256453,86.677322
	C1.000000,83.307091 1.000000,79.614182 1.000000,75.460632
z"/>
<path fill="#36C5F0" opacity="1.000000" stroke="none"
	d="
M53.539368,1.000000
	C54.005001,1.480973 53.838036,2.289515 54.039898,2.395489
	C60.846203,5.968593 62.094936,12.162062 62.005592,19.022505
	C61.969082,21.825979 61.999554,24.630323 61.999554,27.981703
	C55.935894,27.981703 49.979202,28.860344 44.475666,27.660477
	C41.035492,26.910460 37.189583,23.614059 35.467281,20.415003
	C32.820339,15.498499 33.572495,9.965563 37.893070,5.642820
	C39.380047,4.155098 41.068478,2.868730 42.332439,1.245189
	C45.692909,1.000000 49.385818,1.000000 53.539368,1.000000
z"/>
</svg>